<?xml version="1.0" standalone="no"?>
<!DOCTYPE svg PUBLIC "-//W3C//DTD SVG 20010904//EN"
 "http://www.w3.org/TR/2001/REC-SVG-20010904/DTD/svg10.dtd">
<svg version="1.0" xmlns="http://www.w3.org/2000/svg"
 width="1600.000000pt" height="827.000000pt" viewBox="0 0 1600.000000 827.000000"
 preserveAspectRatio="xMidYMid meet">

<g transform="translate(0.000000,827.000000) scale(0.100000,-0.100000)"
fill="#000000" stroke="none">
<path d="M260 7990 c0 -16 0 -1751 0 -3855 0 -2104 0 -3838 0 -3854 l0 -29
6435 0 6434 0 1258 315 c692 172 1275 318 1296 324 30 8 37 14 37 34 0 20 -8
26 -53 38 -28 8 -582 147 -1229 308 -648 162 -1172 296 -1165 300 7 3 560 143
1229 310 l1218 303 0 26 0 25 -1225 305 c-673 168 -1225 307 -1225 310 0 3
550 143 1223 311 1211 302 1222 305 1225 331 4 31 156 -10 -1286 349 -645 160
-1171 293 -1170 295 2 1 546 138 1208 303 663 166 1215 304 1228 307 18 5 22
13 20 32 -3 26 -13 28 -1228 333 -674 168 -1218 309 -1210 313 8 3 560 142
1225 309 1197 299 1210 303 1213 328 l3 25 -1218 304 c-670 167 -1223 306
-1230 309 -7 4 527 141 1185 305 658 165 1212 303 1230 308 28 8 33 13 30 35
-3 27 -4 27 -1298 350 l-1295 323 -6432 0 -6433 0 0 -30z m14100 -337 l1235
-307 -1230 -308 c-676 -169 -1231 -307 -1232 -308 -2 0 -3 -12 -3 -27 l0 -28
248 -61 c994 -244 2200 -549 2194 -555 -4 -3 -554 -143 -1222 -309 -668 -166
-1219 -308 -1223 -314 -5 -6 -7 -1 -5 13 3 24 32 32 1165 315 639 160 1164
293 1167 296 2 3 -402 107 -899 231 l-903 226 -64 -29 c-70 -33 -583 -272
-693 -323 -140 -66 -1282 -599 -1365 -637 -47 -22 -141 -66 -210 -98 -69 -32
-195 -90 -280 -130 -182 -85 -185 -87 -750 -350 -499 -232 -1444 -673 -1570
-733 -119 -56 -211 -97 -216 -97 -2 0 -4 295 -4 655 l0 655 -324 0 -324 0 5
305 6 305 -35 0 c-32 0 -38 4 -51 38 -12 28 -13 40 -4 48 7 6 199 157 427 335
228 177 537 418 685 534 149 116 371 289 494 385 295 230 640 499 675 528 l29
22 -1909 0 -1909 0 -186 -237 c-152 -194 -752 -960 -1058 -1352 -267 -342
-657 -840 -932 -1191 -524 -669 -870 -1112 -903 -1155 -17 -22 -33 -42 -36
-45 -3 -3 -44 -54 -91 -115 -95 -122 -354 -454 -840 -1075 -179 -228 -586
-748 -904 -1155 -319 -407 -668 -854 -777 -993 -109 -139 -198 -258 -198 -264
0 -18 27 -1 167 109 282 220 861 672 992 774 25 19 152 118 281 219 129 101
366 286 525 410 160 124 457 356 660 515 204 159 406 317 450 351 44 34 188
147 320 250 237 185 302 236 415 324 274 213 675 526 717 560 l53 42 0 -729
-1 -728 -537 -249 c-295 -138 -586 -273 -647 -302 -92 -43 -329 -153 -755
-351 -41 -19 -209 -98 -375 -175 -165 -77 -327 -153 -360 -168 -79 -36 -1703
-794 -1780 -831 l-60 -28 76 0 c45 -1 122 9 190 24 122 26 574 122 1112 235
182 39 361 77 397 85 36 8 214 46 395 84 182 39 510 108 730 155 220 47 742
157 1160 246 418 89 889 188 1046 222 l286 61 147 -62 c173 -74 420 -157 623
-209 l145 -38 147 39 c675 179 1173 446 1443 774 26 32 31 33 360 103 183 39
362 77 398 85 36 8 216 47 400 85 639 135 1135 241 1200 255 36 8 184 39 330
70 146 31 294 62 330 70 36 8 216 46 400 85 184 39 364 77 400 85 36 8 216 46
400 85 184 39 364 77 400 85 36 8 216 46 400 85 184 39 493 104 685 145 436
93 1281 272 1355 287 30 6 58 14 62 17 4 4 -497 132 -1115 286 -617 153 -1136
283 -1153 288 -29 9 -31 13 -33 63 -2 52 -1 53 31 62 18 4 545 136 1170 293
625 156 1135 285 1133 288 -3 2 -528 135 -1167 295 l-1163 291 -2 30 c-1 17 1
23 3 13 4 -13 267 -81 1217 -318 667 -166 1218 -305 1224 -309 7 -4 -537 -144
-1210 -312 l-1222 -305 0 -28 0 -28 1230 -307 1230 -307 -1215 -303 c-668
-166 -1223 -305 -1232 -308 -12 -3 -18 -14 -18 -31 l0 -27 1218 -304 c669
-167 1221 -306 1227 -309 5 -3 -542 -144 -1215 -312 l-1225 -306 -3 -27 c-3
-21 2 -28 20 -32 13 -3 568 -142 1233 -308 l1210 -302 -1235 -308 -1235 -308
-6407 0 -6408 1 0 3825 0 3825 6408 0 6407 1 1235 -308z m-7610 -448 c0 -34 1
-35 41 -35 l40 0 -3 -42 c-3 -42 -4 -43 -40 -46 -37 -3 -38 -4 -38 -44 0 -31
6 -45 24 -59 37 -29 50 -79 32 -122 -15 -37 -59 -67 -96 -67 -29 0 -77 27 -90
49 -5 11 -10 38 -10 61 0 34 6 48 30 70 24 22 30 36 30 68 0 40 -1 41 -37 44
-37 3 -38 4 -38 43 0 39 1 40 38 43 35 3 37 5 37 38 0 33 1 34 40 34 39 0 40
-1 40 -35z m-155 -445 c10 -11 20 -34 22 -52 2 -17 8 -37 14 -44 13 -16 6 -19
-57 -28 l-41 -6 1 44 c1 29 -5 51 -16 63 -28 30 -27 31 48 42 6 0 19 -8 29
-19z m314 10 l24 0 -24 -26 c-18 -20 -24 -36 -23 -70 l1 -44 -41 6 c-65 9 -70
12 -56 29 7 8 13 28 15 45 3 40 33 73 60 66 11 -3 31 -6 44 -6z m-557 -82 c-3
-33 2 -48 18 -65 13 -15 16 -23 8 -24 -7 0 -34 -4 -60 -8 -45 -7 -46 -7 -52
20 -3 16 -15 38 -27 50 -11 11 -19 22 -17 23 6 6 113 45 123 45 6 1 9 -17 7
-41z m119 32 c35 -19 14 -90 -27 -90 -15 0 -54 35 -54 48 0 16 32 52 46 52 9
0 24 -5 35 -10z m543 -9 c22 -25 13 -58 -20 -73 -46 -21 -84 40 -48 76 21 21
47 20 68 -3z m123 -2 c32 -12 60 -23 62 -25 3 -3 -5 -14 -18 -25 -12 -11 -24
-33 -27 -49 -4 -19 -11 -27 -23 -24 -9 1 -33 6 -54 9 l-39 6 17 26 c11 16 16
39 13 64 -2 21 0 39 4 39 4 0 33 -10 65 -21z m-377 5 c0 -20 -24 -44 -45 -44
-24 0 -55 23 -55 41 0 5 23 9 50 9 28 0 50 -3 50 -6z m-552 -86 c20 -20 14
-55 -10 -62 -42 -11 -66 -7 -71 13 -11 44 50 80 81 49z m1077 -12 c29 -44 0
-66 -62 -50 -15 4 -23 14 -23 28 0 48 58 63 85 22z m-1205 -25 c0 -11 2 -26 5
-33 4 -10 -17 -19 -80 -35 -47 -11 -85 -17 -85 -12 0 13 132 99 153 99 4 0 7
-9 7 -19z m1336 -17 c62 -37 91 -61 83 -68 -2 -2 -41 6 -87 17 -59 16 -81 26
-77 35 3 8 5 22 5 33 0 26 7 24 76 -17z m-1554 -61 c26 -24 23 -29 -28 -43
-44 -13 -46 -14 -40 -43 l6 -31 -25 24 c-29 27 -32 56 -9 88 18 27 69 30 96 5z
m1790 0 c29 -27 20 -93 -16 -106 -12 -5 -14 0 -10 22 6 26 3 29 -40 41 -25 7
-46 15 -46 18 0 3 7 14 17 24 20 22 70 23 95 1z m-919 -105 c-17 -8 -29 -8
-45 0 -20 9 -18 11 22 11 40 0 42 -2 23 -11z m-862 -229 c27 -73 49 -134 49
-136 0 -1 -48 -3 -106 -3 -97 0 -106 1 -99 18 4 9 27 72 52 140 26 67 48 120
50 118 2 -2 26 -64 54 -137z m442 16 c25 -66 48 -128 52 -137 7 -17 -2 -18
-100 -18 -82 0 -106 3 -103 13 55 148 101 267 104 265 1 -2 23 -57 47 -123z
m1340 0 c25 -66 48 -128 52 -137 7 -17 -2 -18 -100 -18 -82 0 -106 3 -103 13
55 148 101 267 104 265 1 -2 23 -57 47 -123z m-890 -10 c26 -69 47 -130 47
-135 0 -6 -40 -10 -100 -10 -55 0 -100 3 -100 8 0 14 95 262 100 262 3 0 27
-56 53 -125z m451 -14 c25 -69 44 -126 42 -128 -2 -2 -48 -2 -103 -1 l-100 3
51 133 c27 73 53 129 57 125 4 -5 28 -64 53 -132z m566 -351 l0 -150 -1070 0
-1070 0 0 150 0 150 1070 0 1070 0 0 -150z m-2030 -240 c11 -11 20 -29 20 -40
0 -11 -9 -29 -20 -40 -11 -11 -29 -20 -40 -20 -11 0 -29 9 -40 20 -11 11 -20
29 -20 40 0 11 9 29 20 40 11 11 29 20 40 20 11 0 29 -9 40 -20z m116 4 c-3
-9 -6 -31 -6 -50 0 -30 -3 -34 -25 -34 -22 0 -25 4 -25 34 0 19 -3 41 -6 50
-5 13 1 16 31 16 30 0 36 -3 31 -16z m134 -4 c11 -11 20 -29 20 -40 0 -11 -9
-29 -20 -40 -11 -11 -29 -20 -40 -20 -11 0 -29 9 -40 20 -11 11 -20 29 -20 40
0 11 9 29 20 40 11 11 29 20 40 20 11 0 29 -9 40 -20z m116 4 c-3 -9 -6 -31
-6 -50 0 -30 -3 -34 -25 -34 -22 0 -25 4 -25 34 0 19 -3 41 -6 50 -5 13 1 16
31 16 30 0 36 -3 31 -16z m134 -4 c11 -11 20 -29 20 -40 0 -11 -9 -29 -20 -40
-11 -11 -29 -20 -40 -20 -11 0 -29 9 -40 20 -11 11 -20 29 -20 40 0 11 9 29
20 40 11 11 29 20 40 20 11 0 29 -9 40 -20z m116 4 c-3 -9 -6 -31 -6 -50 0
-30 -3 -34 -25 -34 -22 0 -25 4 -25 34 0 19 -3 41 -6 50 -5 13 1 16 31 16 30
0 36 -3 31 -16z m132 -4 c12 -12 22 -30 22 -40 0 -26 -34 -60 -60 -60 -11 0
-29 9 -40 20 -11 11 -20 29 -20 40 0 25 34 60 58 60 10 0 28 -9 40 -20z m118
4 c-3 -9 -6 -31 -6 -50 0 -30 -3 -34 -25 -34 -22 0 -25 4 -25 34 0 19 -3 41
-6 50 -5 13 1 16 31 16 30 0 36 -3 31 -16z m134 -4 c11 -11 20 -29 20 -40 0
-11 -9 -29 -20 -40 -11 -11 -29 -20 -40 -20 -26 0 -60 34 -60 60 0 24 37 60
62 60 10 0 27 -9 38 -20z m116 4 c-3 -9 -6 -31 -6 -50 0 -30 -3 -34 -25 -34
-22 0 -25 4 -25 34 0 19 -3 41 -6 50 -5 13 1 16 31 16 30 0 36 -3 31 -16z
m134 -4 c11 -11 20 -29 20 -40 0 -11 -9 -29 -20 -40 -11 -11 -29 -20 -40 -20
-26 0 -60 34 -60 60 0 24 37 60 62 60 10 0 27 -9 38 -20z m116 4 c-3 -9 -6
-31 -6 -50 0 -30 -3 -34 -25 -34 -22 0 -25 4 -25 34 0 19 -3 41 -6 50 -5 13 1
16 31 16 30 0 36 -3 31 -16z m134 -4 c11 -11 20 -29 20 -40 0 -11 -9 -29 -20
-40 -26 -26 -55 -25 -81 1 -15 15 -19 28 -14 47 13 50 60 67 95 32z m116 4
c-3 -9 -6 -31 -6 -50 0 -30 -3 -34 -25 -34 -22 0 -25 4 -25 34 0 19 -3 41 -6
50 -5 13 1 16 31 16 30 0 36 -3 31 -16z m134 -4 c11 -11 20 -29 20 -40 0 -11
-9 -29 -20 -40 -11 -11 -29 -20 -40 -20 -23 0 -60 33 -60 54 0 22 40 66 61 66
10 0 28 -9 39 -20z m116 4 c-3 -9 -6 -31 -6 -50 0 -30 -3 -34 -25 -34 -22 0
-25 4 -25 34 0 19 -3 41 -6 50 -5 13 1 16 31 16 30 0 36 -3 31 -16z m134 -4
c11 -11 20 -29 20 -40 0 -11 -9 -29 -20 -40 -11 -11 -29 -20 -40 -20 -24 0
-60 34 -60 57 0 23 39 63 62 63 10 0 27 -9 38 -20z m600 -1265 l0 -975 -570 0
-570 0 0 280 0 280 -225 0 -225 0 0 695 0 695 795 0 795 0 0 -975z m-2690 265
l40 0 0 -50 0 -50 75 0 75 0 2 53 2 52 3 -52 4 -53 75 0 74 0 0 50 0 50 34 0
c36 0 44 9 42 53 -2 26 -1 27 56 27 l58 0 2 48 2 47 3 -47 4 -48 54 0 54 0 4
48 c2 26 4 -146 4 -383 0 -244 -3 -407 -7 -376 -10 67 -40 100 -97 108 -29 4
-50 0 -71 -12 -46 -28 -62 -64 -62 -144 l0 -71 -50 0 -50 0 0 148 c0 162 -9
197 -62 236 -37 27 -114 27 -150 0 -53 -39 -58 -59 -58 -228 l0 -156 -55 0
-55 0 0 81 c0 79 -1 82 -34 115 -26 26 -42 34 -71 34 -50 0 -91 -26 -109 -69
-14 -33 -15 -4 -15 317 l-1 352 115 0 115 0 2 48 c1 26 4 8 5 -40 l4 -88 39 0z
m1470 -1145 c0 -303 -3 -393 -14 -418 -16 -40 -86 -103 -155 -140 -65 -36
-213 -87 -249 -87 -71 0 -269 85 -340 145 -84 72 -82 63 -82 500 l0 385 420 0
420 0 0 -385z m751 -317 c-24 -24 -49 -55 -56 -69 -11 -21 -19 -25 -44 -21
-34 5 -37 12 -20 45 8 17 5 16 -15 -6 -14 -15 -26 -24 -26 -20 0 14 83 91 110
102 14 5 41 10 59 10 l35 1 -43 -42z m-103 -108 c75 -18 135 -52 198 -115 34
-33 66 -69 72 -80 10 -19 12 -19 64 -2 75 23 77 22 32 -18 -21 -19 -44 -33
-50 -30 -6 2 -12 -6 -12 -18 0 -29 -21 -81 -29 -73 -3 3 0 17 7 31 14 27 5 49
-10 25 -7 -11 -10 -7 -10 17 0 24 -8 38 -33 57 -43 33 -121 67 -139 61 -7 -2
-35 1 -63 9 l-50 13 35 8 c31 7 33 9 14 16 -12 4 -44 9 -73 10 -41 2 -54 -1
-66 -17 -19 -25 -19 -10 0 20 13 20 13 24 0 42 -15 18 -15 18 -10 -6 6 -32
-17 -63 -47 -62 -13 1 -41 8 -63 16 l-40 15 35 2 c19 1 -14 7 -75 13 l-110 11
80 8 c44 4 94 11 112 16 27 8 30 7 26 -10 -4 -12 0 -19 10 -19 17 0 31 39 14
41 -7 1 6 7 28 14 49 16 96 18 153 5z m-26 -112 c-23 -11 -23 -37 1 -66 7 -9
5 -11 -9 -5 -17 6 -17 5 -5 -10 22 -27 7 -20 -20 10 -13 14 -18 23 -11 19 17
-10 15 9 -3 24 -29 24 -18 40 28 39 38 0 40 -1 19 -11z m168 -89 c0 -6 -4 -7
-10 -4 -5 3 -10 11 -10 16 0 6 5 7 10 4 6 -3 10 -11 10 -16z m-2338 -124 c3
-16 11 -20 41 -19 38 1 39 -4 9 -39 -14 -16 -13 -20 13 -47 l28 -30 -34 10
c-47 14 -46 14 -60 -27 l-12 -38 -12 35 c-11 31 -16 35 -44 32 -34 -2 -40 8
-16 28 21 17 19 30 -7 58 l-23 24 38 -7 c35 -7 38 -6 48 25 12 32 24 30 31 -5z
m570 4 c10 -30 13 -31 52 -25 l41 7 -30 -31 -29 -30 29 -30 28 -29 -38 10
c-40 11 -55 3 -55 -33 0 -10 -4 -18 -10 -18 -5 0 -10 6 -10 13 0 7 -6 21 -13
32 -12 15 -18 16 -46 7 l-32 -11 21 28 c25 36 25 39 -2 68 l-22 24 41 -7 c40
-6 41 -5 48 25 8 39 13 39 27 0z m1589 -210 c-23 -23 -49 -55 -58 -70 -14 -23
-22 -27 -42 -22 -35 8 -36 9 -22 40 l11 28 -25 -28 c-14 -15 -25 -24 -25 -20
0 14 71 79 105 96 17 9 45 16 64 17 l33 0 -41 -41z m-103 -113 c101 -27 188
-86 248 -168 l35 -47 50 19 c27 11 55 20 61 20 14 0 -63 -69 -77 -70 -6 0 -17
-21 -23 -47 -15 -55 -31 -44 -32 22 0 37 -5 43 -52 78 -31 23 -60 36 -70 34
-10 -3 -16 -1 -12 4 3 5 1 9 -5 9 -5 0 -18 3 -28 6 -15 5 -16 4 -3 -6 13 -10
12 -11 -5 -5 -11 4 -31 10 -45 12 -52 9 -56 14 -31 27 l23 13 -32 7 c-65 13
-107 7 -124 -16 -15 -20 -15 -19 0 9 14 26 15 36 6 55 -10 20 -11 20 -9 3 5
-27 -20 -75 -39 -75 -8 0 -31 7 -52 16 -36 16 -37 17 -12 24 18 6 7 8 -40 10
-36 1 -85 5 -110 9 -42 6 -40 7 40 14 47 3 95 9 106 13 16 4 23 0 27 -18 5
-17 9 -20 18 -11 6 6 9 19 7 29 -3 15 6 22 37 31 55 15 81 15 143 -1z m-32
-111 c-19 -14 -19 -16 -2 -52 l18 -38 -29 28 c-16 15 -33 24 -37 20 -4 -4 -4
0 -1 9 4 9 2 19 -4 23 -23 14 -9 25 32 25 39 -1 41 -2 23 -15z m-21 -75 c10
-11 16 -20 13 -20 -3 0 -13 9 -23 20 -10 11 -16 20 -13 20 3 0 13 -9 23 -20z
m195 -16 c0 -20 -7 -17 -20 6 -9 16 -8 18 5 14 8 -4 15 -12 15 -20z m-1894
-78 c5 1 23 5 39 9 l30 7 -24 -26 c-24 -25 -23 -34 5 -73 16 -22 16 -22 -17
-13 -38 11 -40 10 -55 -33 l-11 -32 -13 38 c-11 28 -18 36 -32 32 -68 -19 -65
-20 -34 14 l30 31 -29 30 -30 31 41 -7 c39 -6 41 -5 54 27 l14 32 12 -34 c6
-19 16 -33 20 -33z"/>
<path d="M340 4183 c0 -2075 4 -3741 9 -3733 8 13 135 327 751 1855 100 248
229 567 287 710 58 143 151 375 208 515 57 140 245 606 418 1035 423 1049 460
1139 797 1975 161 399 347 858 412 1020 66 162 126 312 134 333 l13 37 -1514
0 -1515 0 0 -3747z"/>
<path d="M15420 7340 c-11 -8 -7 -9 15 -4 37 8 45 14 19 14 -10 0 -26 -5 -34
-10z"/>
<path d="M6690 7175 c0 -20 -5 -25 -25 -25 -18 0 -25 -5 -25 -20 0 -15 7 -20
25 -20 24 0 25 -2 25 -65 0 -58 2 -65 20 -65 18 0 20 7 20 65 0 63 1 65 25 65
18 0 25 5 25 20 0 15 -7 20 -25 20 -20 0 -25 5 -25 25 0 18 -5 25 -20 25 -15
0 -20 -7 -20 -25z"/>
<path d="M5817 5890 c-33 -28 -37 -37 -37 -80 0 -59 26 -95 79 -111 31 -9 44
-8 73 5 106 51 83 200 -33 213 -41 5 -50 2 -82 -27z"/>
<path d="M6254 5911 c-61 -26 -85 -122 -44 -174 67 -85 200 -36 200 75 0 73
-87 128 -156 99z"/>
<path d="M6664 5911 c-68 -29 -86 -127 -34 -179 36 -37 72 -46 116 -32 111 37
94 203 -21 215 -22 3 -50 1 -61 -4z"/>
<path d="M7074 5911 c-34 -15 -64 -61 -64 -98 0 -129 167 -165 216 -46 18 42
6 88 -30 122 -26 25 -89 36 -122 22z"/>
<path d="M7485 5911 c-86 -36 -83 -166 4 -207 31 -15 40 -15 75 -3 52 18 79
56 79 110 0 36 -6 48 -36 76 -38 34 -78 42 -122 24z"/>
<path d="M7272 4853 c-6 -10 -13 -33 -17 -51 -9 -41 -17 -45 -80 -33 -28 5
-52 7 -55 5 -2 -3 15 -23 37 -46 l42 -41 -46 -54 c-52 -60 -55 -58 47 -32 41
10 43 8 60 -54 7 -26 16 -50 20 -52 4 -2 15 23 25 55 10 33 21 60 24 60 3 -1
32 -7 64 -14 31 -8 57 -11 57 -8 0 3 -19 25 -41 48 l-42 43 43 52 44 51 -30
-5 c-16 -4 -45 -9 -65 -12 l-36 -7 -17 56 c-10 31 -20 56 -22 56 -2 0 -7 -8
-12 -17z"/>
<path d="M7840 4845 c-5 -14 -13 -37 -16 -51 -9 -33 -21 -37 -79 -24 -26 6
-50 9 -52 6 -3 -2 13 -24 36 -48 l40 -44 -39 -45 c-22 -24 -39 -47 -40 -51 0
-3 26 0 58 7 31 8 60 11 63 7 4 -4 14 -31 24 -59 9 -29 18 -53 20 -53 2 0 11
25 21 55 9 31 20 57 23 60 4 2 32 -3 64 -10 31 -7 57 -11 57 -8 0 3 -18 26
-41 50 l-41 45 24 26 c13 15 32 38 43 51 l20 24 -25 -6 c-14 -3 -43 -9 -65
-12 l-41 -7 -17 56 c-10 31 -20 56 -23 56 -2 0 -9 -11 -14 -25z"/>
<path d="M7545 4245 l-17 -57 -47 7 c-25 3 -55 9 -66 12 -20 6 -20 6 0 -18 11
-13 30 -36 44 -51 l24 -27 -42 -47 c-23 -26 -40 -49 -38 -50 2 -2 19 0 38 5
92 24 84 27 104 -40 10 -33 22 -56 25 -52 4 4 15 32 25 61 13 40 21 52 33 48
10 -3 31 -8 47 -11 17 -4 39 -9 49 -12 14 -4 8 8 -22 44 -23 27 -42 53 -42 58
0 5 19 29 42 52 47 48 46 48 -34 29 l-57 -13 -17 51 c-9 28 -20 55 -24 59 -4
4 -15 -17 -25 -48z"/>
<path d="M6665 3650 l-35 -70 0 -174 0 -175 -57 -3 -58 -3 -3 -57 -3 -58 71 0
72 0 -6 -62 c-3 -35 -8 -82 -11 -105 -6 -36 -4 -45 19 -67 16 -17 36 -26 56
-26 20 0 40 9 56 26 23 22 25 31 19 67 -3 23 -8 70 -11 105 l-6 62 71 0 c39 0
71 3 72 8 12 95 2 112 -66 112 l-55 0 0 180 0 179 -36 66 c-20 36 -40 65 -45
65 -5 0 -25 -31 -44 -70z"/>
<path d="M7746 2990 c73 -19 154 -55 209 -93 21 -15 26 -16 17 -5 -41 51 -195
119 -265 117 -23 0 -11 -6 39 -19z"/>
<path d="M8104 2795 c-10 -8 -14 -15 -8 -15 6 0 17 7 24 15 16 19 9 19 -16 0z"/>
<path d="M7617 2345 c86 -27 124 -44 178 -81 l40 -26 -23 25 c-33 35 -127 83
-190 96 -82 17 -84 12 -5 -14z"/>
<path d="M7960 2155 c-17 -10 -20 -14 -9 -15 9 0 22 7 29 15 15 18 12 18 -20
0z"/>
<path d="M7912 2080 c0 -14 2 -19 5 -12 2 6 2 18 0 25 -3 6 -5 1 -5 -13z"/>
</g>
</svg>
